<?xml version="1.0" standalone="no"?><!DOCTYPE svg PUBLIC "-//W3C//DTD SVG 1.1//EN" "http://www.w3.org/Graphics/SVG/1.1/DTD/svg11.dtd"><svg t="1602334806542" class="icon" viewBox="0 0 1024 1024" version="1.1" xmlns="http://www.w3.org/2000/svg" p-id="2942" xmlns:xlink="http://www.w3.org/1999/xlink" width="200" height="200"><defs><style type="text/css"></style></defs><path d="M507.36 960.64a448.75 448.75 0 0 1-174.64-862 445.85 445.85 0 0 1 174.64-35.28 453.52 453.52 0 0 1 69 5.27A445.83 445.83 0 0 1 696.2 104.9a32 32 0 1 1-27 58 381.77 381.77 0 0 0-102.64-31.07 389.23 389.23 0 0 0-59.19-4.52 384.61 384.61 0 1 0 358.7 523.83 32 32 0 0 1 59.66 23.16 448.79 448.79 0 0 1-418.37 286.34zM933.27 552.74a32 32 0 0 1-32-32 390.19 390.19 0 0 0-3-48.67 384.49 384.49 0 0 0-122.21-235.31 32 32 0 0 1 43.18-47.24 448.54 448.54 0 0 1 142.48 274.54 454.27 454.27 0 0 1 3.55 56.69 32 32 0 0 1-32 31.99z" fill="#827100" p-id="2943"></path><path d="M512.04 511.46m-319.95 0a319.95 319.95 0 1 0 639.9 0 319.95 319.95 0 1 0-639.9 0Z" fill="#9ED048" p-id="2944"></path><path d="M413.56 753.06a5 5 0 0 1-4.62-6.91l194.93-472a5 5 0 0 1 9.24 3.82L418.18 750a5 5 0 0 1-4.62 3.06z" fill="#ABDC56" p-id="2945"></path><path d="M609 752.86a5 5 0 0 1-4.62-3.08L408.46 278.21a5 5 0 0 1 9.23-3.84l195.9 471.56a5 5 0 0 1-4.62 6.92z" fill="#ABDC56" p-id="2946"></path><path d="M747 614.54a5 5 0 0 1-1.91-0.38l-472-194.93a5 5 0 1 1 3.82-9.24l472 194.93a5 5 0 0 1-1.91 9.62z" fill="#ABDC56" p-id="2947"></path><path d="M275.24 615a5 5 0 0 1-1.92-9.62l471.56-195.9a5 5 0 0 1 3.84 9.23L277.16 614.64a5 5 0 0 1-1.92 0.36z" fill="#ABDC56" p-id="2948"></path><path d="M512 512m-100 0a100 100 0 1 0 200 0 100 100 0 1 0-200 0Z" fill="#BFFF6B" p-id="2949"></path><path d="M538.86 335.56c0 14.83-23.69 52.92-23.69 52.92-1.74 2.8-4.6 2.8-6.34 0 0 0-23.69-38.08-23.69-52.92a26.86 26.86 0 0 1 53.72 0zM485.14 688.44c0-14.83 23.69-52.92 23.69-52.92 1.74-2.8 4.6-2.8 6.34 0 0 0 23.69 38.08 23.69 52.92a26.86 26.86 0 1 1-53.72 0zM406.23 368.24c10.49 10.49 20.67 54.17 20.67 54.17 0.75 3.21-1.27 5.23-4.48 4.48 0 0-43.68-10.18-54.17-20.67a26.86 26.86 0 1 1 38-38zM617.77 655.76c-10.49-10.49-20.67-54.17-20.67-54.17-0.75-3.21 1.27-5.23 4.48-4.48 0 0 43.68 10.18 54.17 20.67a26.86 26.86 0 0 1-38 38zM335.56 485.14c14.83 0 52.92 23.69 52.92 23.69 2.8 1.74 2.8 4.6 0 6.34 0 0-38.08 23.69-52.92 23.69a26.86 26.86 0 0 1 0-53.72zM688.44 538.86c-14.83 0-52.92-23.69-52.92-23.69-2.8-1.74-2.8-4.6 0-6.34 0 0 38.08-23.69 52.92-23.69a26.86 26.86 0 1 1 0 53.72zM368.24 617.77c10.49-10.49 54.17-20.67 54.17-20.67 3.21-0.75 5.23 1.27 4.48 4.48 0 0-10.18 43.68-20.67 54.17a26.86 26.86 0 1 1-38-38zM655.76 406.23c-10.49 10.49-54.17 20.67-54.17 20.67-3.21 0.75-5.23-1.27-4.48-4.48 0 0 10.18-43.68 20.67-54.17a26.86 26.86 0 1 1 38 38z" fill="" p-id="2950"></path></svg>